<svg width="120" height="40" viewBox="0 0 1247 1247" xmlns="http://www.w3.org/2000/svg" xmlns:xlink="http://www.w3.org/1999/xlink" overflow="hidden">
  <g>
    <rect x="0" y="0" width="1247" height="1247" fill="#00B0F0"/>
    <path d="M483.515 246.5C587.901 246.5 682.405 288.753 750.812 357.067L757.5 364.415 744.744 364.415 744.13 363.741C677.433 297.134 585.292 255.937 483.515 255.937 279.963 255.937 114.95 420.725 114.95 624 114.95 827.275 279.963 992.062 483.515 992.062 585.292 992.062 677.433 950.866 744.13 884.259L744.744 883.584 757.5 883.584 750.812 890.933C682.405 959.247 587.901 1001.5 483.515 1001.5 274.743 1001.5 105.5 832.487 105.5 624 105.5 415.512 274.743 246.5 483.515 246.5Z" stroke="#FFFFFF" stroke-width="1.33316" stroke-miterlimit="8" fill="#FFFFFF" fill-rule="evenodd"/>
    <text fill="#FFFFFF" font-family="Arial Black,Arial Black_MSFontService,sans-serif" font-weight="900" font-size="319" transform="translate(363.129 644)">BAO</text>
    <text fill="#FFFFFF" font-family="Amasis MT Pro Black,Amasis MT Pro Black_MSFontService,sans-serif" font-weight="900" font-size="164" transform="translate(376.544 834)">SERVICE</text>
  </g>
</svg>
